<?xml version="1.0" encoding="UTF-8"?>
<svg xmlns="http://www.w3.org/2000/svg" xmlns:xlink="http://www.w3.org/1999/xlink" width="100px" height="100px" viewBox="0 0 100 100" version="1.1">
<g id="surface1">
<path style=" stroke:none;fill-rule:nonzero;fill:rgb(6.666667%,33.725491%,39.607844%);fill-opacity:1;" d="M 49.246094 -0.0390625 C 49.363281 -0.0390625 49.480469 -0.0390625 49.601562 -0.0390625 C 61.359375 -0.0234375 73.316406 4.335938 82.007812 12.460938 C 82.316406 12.746094 82.632812 13.027344 82.949219 13.304688 C 83.585938 13.863281 84.1875 14.453125 84.78125 15.054688 C 84.886719 15.160156 84.992188 15.265625 85.097656 15.375 C 85.789062 16.085938 86.433594 16.808594 87.039062 17.589844 C 87.367188 18.011719 87.710938 18.414062 88.054688 18.816406 C 91.710938 23.269531 94.394531 28.53125 96.234375 33.992188 C 96.28125 34.136719 96.332031 34.277344 96.378906 34.421875 C 100.367188 46.429688 99.53125 60.285156 93.976562 71.644531 C 93.90625 71.785156 93.839844 71.925781 93.769531 72.070312 C 91.835938 76.003906 89.480469 79.636719 86.597656 82.925781 C 86.40625 83.144531 86.40625 83.144531 86.214844 83.363281 C 84.511719 85.277344 82.738281 87.136719 80.722656 88.71875 C 80.546875 88.863281 80.375 89.007812 80.199219 89.152344 C 78.007812 90.972656 75.640625 92.464844 73.191406 93.902344 C 73.039062 93.992188 73.039062 93.992188 72.878906 94.085938 C 65.851562 98.1875 57.523438 100.03125 49.472656 100.039062 C 49.335938 100.039062 49.203125 100.039062 49.0625 100.039062 C 36.980469 100.023438 25.195312 95.472656 16.289062 87.191406 C 15.988281 86.914062 15.6875 86.648438 15.378906 86.386719 C 14.128906 85.28125 12.957031 84.066406 11.898438 82.773438 C 11.828125 82.691406 11.761719 82.609375 11.691406 82.527344 C 9.734375 80.15625 8.015625 77.667969 6.476562 75 C 6.410156 74.886719 6.339844 74.769531 6.273438 74.652344 C 2.414062 68.003906 0.00390625 59.898438 -0.03125 52.15625 C -0.03125 51.929688 -0.03125 51.929688 -0.0351562 51.695312 C -0.105469 38.375 4.003906 26.070312 12.953125 16.160156 C 13.074219 16.019531 13.199219 15.875 13.324219 15.730469 C 14.910156 13.941406 16.648438 12.296875 18.523438 10.824219 C 18.65625 10.71875 18.65625 10.71875 18.789062 10.613281 C 27.519531 3.757812 38.183594 -0.0273438 49.246094 -0.0390625 Z M 42.019531 3.964844 C 43.011719 5.140625 44.015625 6.304688 45.066406 7.429688 C 46.019531 8.453125 46.957031 9.480469 47.890625 10.519531 C 48.164062 10.820312 48.4375 11.121094 48.710938 11.421875 C 48.777344 11.5 48.847656 11.574219 48.914062 11.648438 C 49.277344 12.050781 49.640625 12.449219 50.007812 12.847656 C 50.082031 12.933594 50.160156 13.015625 50.238281 13.105469 C 50.390625 13.273438 50.546875 13.441406 50.699219 13.609375 C 51.164062 14.117188 51.617188 14.628906 52.070312 15.148438 C 52.46875 15.601562 52.871094 16.003906 53.332031 16.386719 C 54.949219 17.777344 56.03125 20.011719 56.203125 22.140625 C 56.367188 25.109375 55.710938 27.515625 53.886719 29.882812 C 53.613281 30.183594 53.613281 30.183594 53.242188 30.453125 C 52.128906 31.453125 52.011719 33.832031 51.722656 35.289062 C 51.6875 35.460938 51.6875 35.460938 51.652344 35.636719 C 50.6875 40.472656 49.675781 46.160156 50.753906 51.066406 C 51.015625 50.667969 51.132812 50.414062 51.265625 49.964844 C 53.316406 43.324219 57.519531 37.996094 63.101562 33.992188 C 63.261719 33.878906 63.421875 33.761719 63.585938 33.640625 C 64.355469 33.109375 64.871094 32.777344 65.8125 32.925781 C 66.296875 33.675781 66.546875 34.132812 66.414062 35.0625 C 66.097656 35.347656 65.851562 35.519531 65.484375 35.71875 C 65.289062 35.835938 65.09375 35.953125 64.898438 36.070312 C 64.800781 36.128906 64.703125 36.1875 64.597656 36.25 C 63.109375 37.183594 61.800781 38.414062 60.542969 39.632812 C 60.429688 39.742188 60.429688 39.742188 60.3125 39.855469 C 55.660156 44.324219 53.035156 50.417969 52.769531 56.882812 C 52.714844 59.195312 53.03125 60.769531 54.367188 62.652344 C 54.476562 62.8125 54.589844 62.96875 54.703125 63.132812 C 54.933594 63.441406 55.167969 63.734375 55.421875 64.023438 C 55.566406 63.992188 55.566406 63.992188 55.71875 63.960938 C 56.8125 63.734375 57.855469 63.671875 58.96875 63.679688 C 59.210938 63.679688 59.210938 63.679688 59.453125 63.679688 C 60.339844 63.679688 61.152344 63.75 62.011719 63.972656 C 62.421875 64.035156 62.707031 63.996094 63.101562 63.871094 C 64.078125 62.742188 64.472656 61.328125 64.480469 59.839844 C 64.480469 59.675781 64.480469 59.511719 64.480469 59.34375 C 64.484375 59.082031 64.484375 59.082031 64.484375 58.816406 C 64.488281 58.4375 64.492188 58.0625 64.496094 57.6875 C 64.5 57.101562 64.503906 56.511719 64.507812 55.921875 C 64.523438 52.246094 64.769531 48.871094 67.488281 46.132812 C 68.136719 45.535156 68.792969 45.066406 69.578125 44.664062 C 69.707031 44.597656 69.835938 44.53125 69.96875 44.464844 C 72.222656 43.519531 75.0625 43.898438 77.265625 44.789062 C 79.5625 45.75 81.5625 47.132812 83.433594 48.78125 C 83.582031 48.90625 83.726562 49.035156 83.878906 49.164062 C 85.46875 50.5625 87.460938 52.492188 87.660156 54.722656 C 87.644531 55.257812 87.503906 55.734375 87.347656 56.25 C 88.382812 56.105469 89.257812 55.886719 90.058594 55.183594 C 90.535156 54.507812 90.632812 53.859375 90.511719 53.046875 C 90.183594 51.691406 89.613281 50.632812 88.425781 49.878906 C 88.132812 49.71875 87.835938 49.5625 87.539062 49.410156 C 87.199219 49.238281 87.199219 49.238281 87.046875 49.085938 C 87.03125 48.851562 87.019531 48.617188 87.015625 48.382812 C 87.015625 48.234375 87.011719 48.082031 87.007812 47.929688 C 87.003906 47.683594 87.003906 47.683594 87 47.4375 C 86.996094 47.269531 86.996094 47.105469 86.992188 46.933594 C 86.980469 46.402344 86.972656 45.871094 86.964844 45.339844 C 86.957031 44.980469 86.949219 44.621094 86.945312 44.261719 C 86.925781 43.382812 86.914062 42.5 86.898438 41.617188 C 86.8125 41.570312 86.726562 41.527344 86.636719 41.480469 C 85.023438 40.632812 83.414062 39.789062 81.863281 38.832031 C 81.707031 38.738281 81.550781 38.644531 81.390625 38.546875 C 77.566406 36.183594 73.859375 33.492188 70.574219 30.398438 C 70.257812 30.101562 69.933594 29.816406 69.605469 29.527344 C 68.964844 28.960938 68.363281 28.363281 67.761719 27.753906 C 67.660156 27.652344 67.558594 27.550781 67.457031 27.445312 C 65.3125 25.273438 63.429688 22.824219 61.746094 20.273438 C 61.679688 20.171875 61.609375 20.066406 61.539062 19.960938 C 60.128906 17.792969 60.128906 17.792969 60.242188 16.617188 C 60.550781 16.148438 60.550781 16.148438 60.992188 15.855469 C 61.59375 15.765625 61.996094 15.820312 62.5 16.160156 C 62.757812 16.5625 62.757812 16.5625 63.027344 17.082031 C 64.089844 19.058594 65.433594 20.851562 66.867188 22.5625 C 66.984375 22.707031 67.105469 22.855469 67.226562 23.007812 C 68.242188 24.265625 69.359375 25.421875 70.492188 26.570312 C 70.566406 26.648438 70.644531 26.726562 70.722656 26.808594 C 71.628906 27.730469 72.550781 28.59375 73.554688 29.40625 C 73.929688 29.710938 74.285156 30.027344 74.640625 30.355469 C 75.289062 30.945312 75.96875 31.484375 76.667969 32.011719 C 76.792969 32.109375 76.921875 32.207031 77.054688 32.304688 C 79.335938 34.015625 81.714844 35.621094 84.1875 37.042969 C 84.402344 37.167969 84.402344 37.167969 84.625 37.292969 C 85.121094 37.578125 85.617188 37.863281 86.117188 38.148438 C 86.273438 38.238281 86.433594 38.328125 86.597656 38.421875 C 86.75 38.507812 86.902344 38.59375 87.0625 38.683594 C 87.265625 38.796875 87.265625 38.796875 87.472656 38.917969 C 88.125 39.269531 88.792969 39.605469 89.457031 39.9375 C 89.457031 40.074219 89.457031 40.074219 89.453125 40.214844 C 89.445312 41.167969 89.441406 42.121094 89.449219 43.070312 C 89.449219 43.425781 89.445312 43.78125 89.441406 44.136719 C 89.4375 44.648438 89.4375 45.160156 89.441406 45.671875 C 89.4375 45.90625 89.4375 45.90625 89.433594 46.148438 C 89.449219 47.019531 89.449219 47.019531 89.902344 47.734375 C 90.253906 48.015625 90.253906 48.015625 90.617188 48.246094 C 91.859375 49.066406 92.726562 50.613281 93.03125 52.066406 C 93.207031 53.625 93.285156 55.273438 92.375 56.609375 C 91.113281 58.1875 89.4375 58.59375 87.539062 58.945312 C 85.925781 59.101562 84.347656 59.007812 82.746094 58.792969 C 82.535156 58.765625 82.535156 58.765625 82.324219 58.738281 C 81.515625 58.625 80.851562 58.441406 80.121094 58.078125 C 80.109375 57.808594 80.097656 57.539062 80.09375 57.269531 C 80.085938 57.117188 80.082031 56.96875 80.078125 56.8125 C 80.121094 56.402344 80.121094 56.402344 80.273438 56.132812 C 80.738281 55.839844 81.25 55.800781 81.785156 55.726562 C 83.503906 55.476562 83.503906 55.476562 84.941406 54.574219 C 84.394531 53.664062 83.699219 52.90625 82.980469 52.132812 C 82.863281 52.007812 82.75 51.882812 82.628906 51.75 C 81.671875 50.75 80.636719 49.894531 79.519531 49.085938 C 79.386719 48.988281 79.257812 48.894531 79.121094 48.792969 C 78.777344 48.589844 78.777344 48.589844 78.445312 48.707031 C 78.097656 48.984375 77.914062 49.261719 77.691406 49.648438 C 77.617188 49.773438 77.542969 49.898438 77.464844 50.03125 C 76.363281 52.3125 77.050781 54.867188 77.800781 57.144531 C 78.417969 58.953125 79.152344 60.707031 79.890625 62.464844 C 81.566406 66.460938 82.898438 70.433594 81.273438 74.6875 C 80.09375 77.582031 78.011719 80.074219 75.601562 82.011719 C 75.796875 82.535156 76.019531 82.996094 76.316406 83.464844 C 76.398438 83.59375 76.476562 83.71875 76.558594 83.847656 C 76.640625 83.976562 76.722656 84.109375 76.808594 84.242188 C 76.929688 84.4375 76.929688 84.4375 77.058594 84.636719 C 77.371094 85.136719 77.6875 85.636719 78.011719 86.128906 C 78.695312 85.996094 79.070312 85.59375 79.554688 85.117188 C 79.730469 84.949219 79.90625 84.78125 80.082031 84.613281 C 80.167969 84.535156 80.25 84.453125 80.339844 84.367188 C 80.625 84.09375 80.921875 83.835938 81.222656 83.574219 C 82.246094 82.675781 83.15625 81.683594 84.035156 80.640625 C 84.15625 80.5 84.277344 80.363281 84.402344 80.21875 C 92.453125 70.871094 95.945312 58.597656 95.300781 46.347656 C 94.457031 34.480469 88.707031 23.09375 79.972656 15.179688 C 79.222656 14.53125 78.449219 13.917969 77.667969 13.3125 C 77.425781 13.121094 77.1875 12.929688 76.953125 12.734375 C 69.242188 6.496094 59.160156 3.425781 49.378906 3.457031 C 49.222656 3.457031 49.070312 3.457031 48.910156 3.457031 C 46.582031 3.460938 44.316406 3.5625 42.019531 3.964844 Z M 36.953125 5.125 C 36.8125 5.167969 36.675781 5.207031 36.53125 5.25 C 35.226562 5.632812 33.953125 6.078125 32.679688 6.554688 C 32.679688 6.65625 32.679688 6.757812 32.679688 6.859375 C 32.882812 7.066406 32.882812 7.066406 33.160156 7.289062 C 33.761719 7.804688 34.3125 8.351562 34.863281 8.917969 C 35.378906 9.445312 35.886719 9.964844 36.445312 10.441406 C 37.097656 11 37.6875 11.617188 38.285156 12.230469 C 38.816406 12.769531 39.359375 13.28125 39.929688 13.777344 C 40.453125 14.238281 40.933594 14.742188 41.414062 15.242188 C 41.574219 15.171875 41.730469 15.097656 41.894531 15.019531 C 43.628906 14.226562 45.082031 13.84375 46.988281 13.71875 C 45.835938 12.34375 44.632812 11.023438 43.417969 9.707031 C 42.734375 8.964844 42.054688 8.21875 41.378906 7.46875 C 40.910156 6.953125 40.445312 6.441406 39.976562 5.925781 C 39.898438 5.839844 39.820312 5.757812 39.742188 5.667969 C 39.449219 5.347656 39.160156 5.03125 38.855469 4.726562 C 38.1875 4.726562 37.59375 4.9375 36.953125 5.125 Z M 28.871094 8.234375 C 28.742188 8.300781 28.617188 8.367188 28.484375 8.4375 C 28.347656 8.511719 28.210938 8.585938 28.070312 8.660156 C 27.929688 8.734375 27.789062 8.808594 27.644531 8.886719 C 26.703125 9.398438 25.785156 9.941406 24.886719 10.527344 C 24.722656 10.632812 24.722656 10.632812 24.558594 10.742188 C 24.015625 11.082031 24.015625 11.082031 23.644531 11.585938 C 26.085938 12.785156 28.53125 13.988281 30.980469 15.175781 C 31.832031 15.585938 32.683594 16.003906 33.535156 16.417969 C 33.632812 16.46875 33.730469 16.515625 33.832031 16.566406 C 34.3125 16.800781 34.789062 17.035156 35.265625 17.269531 C 35.605469 17.433594 35.949219 17.601562 36.289062 17.765625 C 36.578125 17.90625 36.867188 18.050781 37.152344 18.195312 C 37.273438 18.253906 37.390625 18.3125 37.515625 18.375 C 37.613281 18.425781 37.714844 18.476562 37.820312 18.527344 C 38.109375 18.625 38.109375 18.625 38.417969 18.488281 C 38.847656 18.195312 39.054688 17.828125 39.308594 17.378906 C 39.355469 16.925781 39.355469 16.925781 39.109375 16.683594 C 39.019531 16.597656 38.925781 16.515625 38.832031 16.429688 C 38.679688 16.289062 38.679688 16.289062 38.527344 16.144531 C 38.417969 16.046875 38.308594 15.945312 38.195312 15.84375 C 37.972656 15.636719 37.75 15.429688 37.53125 15.222656 C 37.421875 15.125 37.3125 15.023438 37.199219 14.917969 C 36.8125 14.554688 36.441406 14.175781 36.070312 13.796875 C 35.664062 13.378906 35.257812 12.984375 34.816406 12.605469 C 34.160156 12.035156 33.558594 11.410156 32.949219 10.789062 C 32.417969 10.246094 31.871094 9.726562 31.292969 9.234375 C 30.902344 8.886719 30.554688 8.507812 30.203125 8.121094 C 29.738281 7.730469 29.34375 7.988281 28.871094 8.234375 Z M 16.238281 17.683594 C 15.277344 18.65625 14.375 19.632812 13.554688 20.730469 C 13.425781 20.898438 13.300781 21.066406 13.171875 21.234375 C 12.539062 21.925781 12.539062 21.925781 12.199219 22.714844 C 20.449219 22.714844 28.699219 22.714844 37.199219 22.714844 C 37.25 22.261719 37.296875 21.808594 37.347656 21.339844 C 35.339844 20.246094 33.296875 19.226562 31.238281 18.234375 C 30.429688 17.84375 29.621094 17.449219 28.816406 17.054688 C 28.359375 16.832031 27.898438 16.609375 27.441406 16.382812 C 27.351562 16.339844 27.261719 16.296875 27.167969 16.25 C 26.207031 15.78125 25.246094 15.3125 24.285156 14.84375 C 24.132812 14.769531 23.980469 14.695312 23.824219 14.621094 C 20.148438 12.832031 18.929688 14.980469 16.238281 17.683594 Z M 41.265625 19.207031 C 40.25 20.554688 39.765625 22.238281 39.910156 23.933594 C 40.175781 25.832031 40.949219 27.605469 42.46875 28.8125 C 44.054688 29.9375 45.714844 30.5 47.664062 30.273438 C 49.808594 29.871094 51.433594 28.84375 52.683594 27.019531 C 53.675781 25.261719 53.902344 23.34375 53.378906 21.398438 C 52.644531 19.234375 51.402344 17.953125 49.402344 16.960938 C 46.339844 15.667969 43.355469 16.757812 41.265625 19.207031 Z M 8.878906 27.726562 C 8.667969 28.199219 8.425781 28.648438 8.183594 29.101562 C 8.027344 29.421875 7.871094 29.738281 7.71875 30.058594 C 7.59375 30.300781 7.59375 30.300781 7.46875 30.550781 C 7.394531 30.707031 7.320312 30.867188 7.242188 31.027344 C 7.171875 31.167969 7.105469 31.304688 7.035156 31.445312 C 6.796875 32.355469 7.457031 33.28125 7.867188 34.070312 C 7.933594 34.195312 7.996094 34.316406 8.0625 34.445312 C 9.074219 36.347656 10.257812 38.148438 11.445312 39.9375 C 15.558594 37.984375 19.632812 35.960938 23.6875 33.890625 C 25.078125 33.183594 26.472656 32.488281 27.878906 31.8125 C 29.824219 30.875 31.75 29.898438 33.675781 28.921875 C 34.144531 28.683594 34.613281 28.449219 35.078125 28.210938 C 35.988281 27.75 36.894531 27.289062 37.800781 26.828125 C 37.652344 26.148438 37.652344 26.148438 37.5 25.457031 C 33.972656 25.398438 30.445312 25.351562 26.914062 25.324219 C 25.277344 25.308594 23.640625 25.292969 22 25.261719 C 20.574219 25.234375 19.144531 25.21875 17.714844 25.214844 C 16.960938 25.210938 16.203125 25.203125 15.449219 25.183594 C 14.734375 25.164062 14.023438 25.160156 13.3125 25.164062 C 13.050781 25.164062 12.789062 25.160156 12.53125 25.148438 C 10.40625 25.070312 9.722656 25.789062 8.878906 27.726562 Z M 39.757812 30.03125 C 36.882812 40.707031 36.304688 51.882812 41.882812 61.832031 C 43.566406 64.726562 45.671875 67.175781 48.042969 69.511719 C 48.476562 69.074219 48.886719 68.644531 49.246094 68.140625 C 49.246094 67.988281 49.246094 67.839844 49.246094 67.683594 C 48.9375 67.394531 48.9375 67.394531 48.53125 67.101562 C 46.757812 65.675781 45.5 63.890625 44.425781 61.890625 C 44.375 61.796875 44.324219 61.699219 44.269531 61.605469 C 42.765625 58.847656 41.953125 55.832031 41.414062 52.742188 C 41.390625 52.601562 41.367188 52.457031 41.339844 52.3125 C 40.359375 46.335938 40.910156 40.058594 41.921875 34.128906 C 41.957031 33.941406 41.988281 33.753906 42.019531 33.5625 C 42.046875 33.398438 42.078125 33.234375 42.105469 33.066406 C 42.164062 32.652344 42.207031 32.277344 42.167969 31.859375 C 41.832031 31.519531 41.832031 31.519531 41.386719 31.242188 C 40.824219 30.855469 40.285156 30.464844 39.757812 30.03125 Z M 36.597656 30.488281 C 36.496094 30.539062 36.394531 30.589844 36.292969 30.644531 C 35.8125 30.886719 35.335938 31.128906 34.855469 31.375 C 34.699219 31.453125 34.539062 31.535156 34.378906 31.617188 C 33.273438 32.179688 32.164062 32.722656 31.046875 33.257812 C 29.167969 34.164062 27.308594 35.105469 25.453125 36.050781 C 23.460938 37.066406 21.464844 38.070312 19.449219 39.042969 C 18.265625 39.613281 17.085938 40.191406 15.910156 40.785156 C 15.703125 40.890625 15.492188 40.996094 15.285156 41.101562 C 14.972656 41.253906 14.660156 41.410156 14.351562 41.570312 C 14.257812 41.617188 14.164062 41.660156 14.066406 41.710938 C 13.570312 41.945312 13.570312 41.945312 13.253906 42.378906 C 14.714844 44.347656 16.285156 46.195312 17.921875 48.019531 C 18.175781 48.304688 18.429688 48.589844 18.683594 48.875 C 18.796875 49.003906 18.910156 49.132812 19.027344 49.261719 C 19.109375 49.355469 19.191406 49.449219 19.277344 49.542969 C 19.679688 49.347656 20.039062 49.136719 20.402344 48.878906 C 20.550781 48.769531 20.550781 48.769531 20.703125 48.660156 C 20.8125 48.585938 20.917969 48.507812 21.027344 48.429688 C 21.195312 48.308594 21.195312 48.308594 21.367188 48.183594 C 22.519531 47.355469 23.664062 46.515625 24.808594 45.675781 C 25.375 45.261719 25.941406 44.847656 26.507812 44.4375 C 26.730469 44.269531 26.957031 44.105469 27.183594 43.941406 C 27.636719 43.609375 28.085938 43.28125 28.539062 42.949219 C 28.707031 42.828125 28.707031 42.828125 28.878906 42.703125 C 29.101562 42.539062 29.328125 42.371094 29.554688 42.207031 C 30.128906 41.789062 30.703125 41.367188 31.277344 40.945312 C 31.390625 40.863281 31.507812 40.777344 31.628906 40.6875 C 31.855469 40.519531 32.085938 40.351562 32.3125 40.183594 C 32.828125 39.804688 33.339844 39.441406 33.878906 39.101562 C 34.015625 39.011719 34.015625 39.011719 34.152344 38.921875 C 34.394531 38.769531 34.636719 38.621094 34.878906 38.472656 C 35.402344 37.945312 35.429688 37.460938 35.542969 36.738281 C 35.613281 36.386719 35.683594 36.03125 35.757812 35.679688 C 35.878906 35.097656 35.996094 34.511719 36.113281 33.929688 C 36.4375 32.328125 36.4375 32.328125 36.632812 31.609375 C 36.742188 31.117188 36.734375 30.945312 36.597656 30.488281 Z M 48.324219 32.851562 C 47.625 32.941406 46.945312 32.945312 46.246094 32.9375 C 46.113281 32.9375 45.980469 32.933594 45.84375 32.933594 C 45.523438 32.933594 45.203125 32.929688 44.878906 32.925781 C 44.550781 34.277344 44.300781 35.625 44.117188 37.003906 C 44.089844 37.195312 44.066406 37.390625 44.039062 37.585938 C 42.96875 45.894531 42.949219 55.585938 48.074219 62.65625 C 48.972656 63.796875 49.988281 65.050781 51.203125 65.855469 C 51.875 65.835938 52.210938 65.511719 52.710938 65.089844 C 52.601562 64.917969 52.601562 64.917969 52.488281 64.742188 C 49.125 59.34375 47.859375 53.230469 47.855469 46.894531 C 47.855469 46.722656 47.855469 46.722656 47.855469 46.542969 C 47.859375 42.367188 48.351562 38.199219 49.269531 34.125 C 49.375 33.648438 49.429688 33.261719 49.398438 32.773438 C 48.816406 32.757812 48.816406 32.757812 48.324219 32.851562 Z M 5.574219 35.671875 C 1.816406 46.378906 2.632812 58.957031 7.398438 69.207031 C 7.6875 69.820312 7.984375 70.429688 8.28125 71.035156 C 9.433594 70.488281 10.535156 69.871094 11.632812 69.226562 C 16.554688 66.359375 21.371094 64.992188 27.050781 64.785156 C 27.367188 64.773438 27.6875 64.761719 28.003906 64.75 C 29.058594 64.710938 30.117188 64.671875 31.175781 64.632812 C 31.273438 64.628906 31.371094 64.628906 31.472656 64.625 C 34.386719 64.519531 37.296875 64.421875 40.210938 64.328125 C 39.996094 63.78125 39.761719 63.261719 39.488281 62.742188 C 39.371094 62.511719 39.371094 62.511719 39.25 62.277344 C 39.164062 62.117188 39.082031 61.957031 38.996094 61.796875 C 38.832031 61.480469 38.667969 61.164062 38.5 60.847656 C 38.429688 60.707031 38.355469 60.566406 38.28125 60.421875 C 38.101562 60.0625 38.101562 60.0625 37.953125 59.605469 C 37.8125 59.605469 37.671875 59.605469 37.527344 59.605469 C 36.207031 59.613281 34.882812 59.613281 33.5625 59.605469 C 32.878906 59.605469 32.199219 59.605469 31.519531 59.609375 C 30.863281 59.613281 30.207031 59.609375 29.550781 59.605469 C 29.300781 59.605469 29.050781 59.605469 28.800781 59.609375 C 27.15625 59.628906 26.097656 59.414062 24.847656 58.230469 C 24.625 58.054688 24.625 58.054688 24.394531 57.871094 C 23.992188 57.535156 23.59375 57.199219 23.191406 56.859375 C 23.117188 56.796875 23.039062 56.730469 22.960938 56.664062 C 20.992188 55.007812 19.148438 53.238281 17.339844 51.410156 C 17.214844 51.285156 17.214844 51.285156 17.089844 51.160156 C 16.179688 50.242188 15.285156 49.316406 14.457031 48.324219 C 14.324219 48.167969 14.195312 48.015625 14.0625 47.863281 C 12.933594 46.53125 11.878906 45.152344 10.84375 43.75 C 10.761719 43.640625 10.679688 43.527344 10.59375 43.414062 C 8.78125 40.945312 7.179688 38.371094 5.722656 35.671875 C 5.671875 35.671875 5.625 35.671875 5.574219 35.671875 Z M 33.894531 42.40625 C 33.800781 42.472656 33.707031 42.542969 33.613281 42.613281 C 33.300781 42.839844 32.992188 43.066406 32.679688 43.292969 C 32.464844 43.449219 32.25 43.609375 32.03125 43.765625 C 31.34375 44.269531 30.65625 44.769531 29.96875 45.273438 C 28.632812 46.253906 27.296875 47.230469 25.957031 48.199219 C 25.097656 48.816406 24.242188 49.441406 23.390625 50.066406 C 22.722656 50.554688 22.054688 51.042969 21.386719 51.523438 C 21.558594 51.699219 21.734375 51.875 21.90625 52.050781 C 22.0625 52.207031 22.214844 52.367188 22.363281 52.527344 C 22.996094 53.1875 23.679688 53.769531 24.386719 54.347656 C 24.910156 54.773438 25.421875 55.210938 25.933594 55.648438 C 26.019531 55.722656 26.105469 55.800781 26.195312 55.875 C 26.398438 56.050781 26.601562 56.226562 26.808594 56.402344 C 27.632812 55.808594 28.382812 55.15625 29.121094 54.457031 C 29.613281 53.996094 30.113281 53.558594 30.636719 53.132812 C 31.347656 52.558594 32.015625 51.945312 32.675781 51.3125 C 32.75 51.238281 32.824219 51.167969 32.902344 51.09375 C 32.980469 51.015625 33.058594 50.9375 33.140625 50.859375 C 33.433594 50.609375 33.433594 50.609375 33.863281 50.382812 C 34.386719 50.066406 34.804688 49.785156 35.089844 49.238281 C 35.355469 47.992188 35.195312 46.675781 35.117188 45.417969 C 35.101562 45.0625 35.089844 44.710938 35.074219 44.355469 C 35.039062 43.492188 34.992188 42.628906 34.941406 41.769531 C 34.582031 41.769531 34.183594 42.195312 33.894531 42.40625 Z M 68.722656 48.808594 C 67.386719 50.648438 67.125 52.53125 67.128906 54.757812 C 67.125 55.144531 67.121094 55.535156 67.117188 55.925781 C 67.113281 56.53125 67.113281 57.136719 67.109375 57.742188 C 67.109375 58.332031 67.105469 58.921875 67.097656 59.511719 C 67.101562 59.691406 67.101562 59.867188 67.101562 60.050781 C 67.082031 61.683594 66.679688 63.164062 65.925781 64.605469 C 65.847656 64.757812 65.769531 64.910156 65.6875 65.066406 C 65.628906 65.175781 65.570312 65.285156 65.511719 65.394531 C 65.601562 65.457031 65.695312 65.519531 65.789062 65.582031 C 68.753906 67.617188 70.707031 70.285156 71.445312 73.863281 C 71.5 74.171875 71.546875 74.484375 71.582031 74.796875 C 71.734375 76.03125 72.132812 76.898438 72.796875 77.933594 C 72.882812 78.078125 72.972656 78.222656 73.0625 78.371094 C 73.394531 78.921875 73.394531 78.921875 73.796875 79.421875 C 74.640625 79.421875 74.90625 79.027344 75.503906 78.460938 C 77.703125 76.203125 79.441406 73.472656 79.421875 70.226562 C 79.351562 67.40625 77.933594 64.621094 76.875 62.058594 C 73.410156 53.671875 73.410156 53.671875 74.804688 49.386719 C 75.050781 48.8125 75.359375 48.320312 75.742188 47.832031 C 75.796875 47.742188 75.847656 47.652344 75.902344 47.5625 C 75.828125 47.335938 75.828125 47.335938 75.753906 47.105469 C 73.226562 45.898438 70.441406 46.707031 68.722656 48.808594 Z M 34.882812 53.039062 C 34.339844 53.539062 33.789062 54.019531 33.21875 54.488281 C 32.355469 55.191406 31.515625 55.925781 30.722656 56.707031 C 30.722656 56.757812 30.722656 56.808594 30.722656 56.859375 C 32.710938 56.859375 34.699219 56.859375 36.746094 56.859375 C 36.523438 55.699219 36.523438 55.699219 36.25 54.554688 C 36.21875 54.425781 36.1875 54.300781 36.152344 54.171875 C 36.117188 54.046875 36.085938 53.921875 36.050781 53.792969 C 36 53.59375 36 53.59375 35.945312 53.394531 C 35.863281 53.074219 35.777344 52.757812 35.691406 52.4375 C 35.382812 52.4375 35.09375 52.84375 34.882812 53.039062 Z M 51.808594 69.359375 C 51.703125 69.460938 51.597656 69.5625 51.488281 69.667969 C 49.617188 71.59375 48.863281 74.195312 48.882812 76.832031 C 48.96875 79.894531 50.28125 82.242188 52.449219 84.320312 C 54.335938 85.972656 56.863281 86.875 59.359375 86.78125 C 61.804688 86.542969 63.976562 85.675781 65.8125 83.992188 C 65.90625 83.914062 65.996094 83.832031 66.089844 83.75 C 67.820312 82.128906 68.917969 79.667969 69.027344 77.289062 C 69.078125 74.308594 68.417969 71.765625 66.308594 69.554688 C 66.136719 69.382812 66.136719 69.382812 65.964844 69.207031 C 65.863281 69.101562 65.765625 68.996094 65.660156 68.886719 C 63.800781 67.035156 61.214844 66.226562 58.652344 66.246094 C 56.023438 66.339844 53.628906 67.464844 51.808594 69.359375 Z M 35.085938 67.136719 C 32.628906 67.207031 30.167969 67.289062 27.710938 67.378906 C 27.9375 67.863281 28.125 68.105469 28.546875 68.425781 C 30.117188 69.777344 31.09375 71.917969 31.476562 73.933594 C 35.015625 74.222656 38.558594 74.515625 42.101562 74.78125 C 42.363281 74.800781 42.628906 74.820312 42.890625 74.839844 C 43.257812 74.867188 43.625 74.894531 43.992188 74.921875 C 44.148438 74.933594 44.148438 74.933594 44.3125 74.945312 C 44.953125 74.992188 45.589844 75.007812 46.234375 75 C 46.839844 73.308594 46.839844 73.308594 46.601562 71.632812 C 46.246094 71.289062 45.890625 71.007812 45.480469 70.730469 C 45.230469 70.476562 44.980469 70.222656 44.730469 69.96875 C 44.628906 69.871094 44.527344 69.773438 44.425781 69.671875 C 44.3125 69.558594 44.195312 69.445312 44.078125 69.332031 C 43.972656 69.226562 43.871094 69.125 43.761719 69.019531 C 43.375 68.597656 43.375 68.597656 43.128906 68.214844 C 42.589844 67.394531 42.589844 67.394531 41.757812 66.945312 C 41.234375 66.910156 40.726562 66.925781 40.203125 66.957031 C 39.996094 66.964844 39.789062 66.972656 39.585938 66.976562 C 39.09375 66.992188 38.605469 67.011719 38.117188 67.035156 C 37.105469 67.078125 36.097656 67.109375 35.085938 67.136719 Z M 16.148438 70.667969 C 14.757812 72.199219 14.097656 74.167969 14.125 76.21875 C 14.28125 78.429688 15.25 80.242188 16.867188 81.707031 C 18.539062 82.992188 20.472656 83.5625 22.566406 83.316406 C 24.734375 82.925781 26.421875 81.800781 27.78125 80.050781 C 28.929688 78.34375 29.148438 76.398438 28.914062 74.390625 C 28.65625 73.015625 28.039062 71.902344 27.109375 70.882812 C 26.984375 70.742188 26.984375 70.742188 26.859375 70.597656 C 25.453125 69.054688 23.636719 68.398438 21.601562 68.285156 C 19.441406 68.320312 17.695312 69.183594 16.148438 70.667969 Z M 10.675781 72.867188 C 10.574219 72.925781 10.476562 72.980469 10.375 73.042969 C 10.128906 73.1875 9.882812 73.332031 9.636719 73.476562 C 9.824219 73.820312 10.015625 74.164062 10.203125 74.503906 C 10.253906 74.601562 10.308594 74.699219 10.363281 74.796875 C 10.667969 75.351562 10.972656 75.792969 11.445312 76.21875 C 11.464844 76.035156 11.480469 75.851562 11.5 75.664062 C 11.527344 75.417969 11.550781 75.167969 11.578125 74.921875 C 11.589844 74.804688 11.601562 74.683594 11.613281 74.558594 C 11.695312 73.765625 11.839844 73.023438 12.046875 72.257812 C 11.53125 72.257812 11.113281 72.605469 10.675781 72.867188 Z M 34.035156 76.980469 C 33.988281 78.390625 33.9375 79.796875 33.886719 81.25 C 38.347656 83.058594 43.511719 84.109375 48.34375 83.992188 C 48.132812 83.4375 47.886719 82.917969 47.609375 82.394531 C 46.996094 81.160156 46.617188 79.90625 46.378906 78.550781 C 46.335938 78.324219 46.335938 78.324219 46.296875 78.09375 C 46.277344 77.976562 46.253906 77.863281 46.234375 77.742188 C 44.957031 77.644531 43.675781 77.542969 42.398438 77.445312 C 41.804688 77.398438 41.207031 77.355469 40.613281 77.308594 C 40.039062 77.261719 39.464844 77.21875 38.890625 77.175781 C 38.671875 77.15625 38.453125 77.140625 38.234375 77.121094 C 37.925781 77.097656 37.617188 77.074219 37.308594 77.050781 C 37.136719 77.039062 36.960938 77.023438 36.78125 77.011719 C 35.867188 76.96875 34.953125 76.980469 34.035156 76.980469 Z M 31.175781 78.964844 C 31.324219 79.269531 31.324219 79.269531 31.324219 79.269531 Z M 31.023438 79.421875 C 30.960938 79.558594 30.898438 79.695312 30.835938 79.835938 C 29.558594 82.566406 27.6875 84.484375 24.847656 85.519531 C 23.414062 85.953125 21.96875 86.066406 20.480469 86.128906 C 21.023438 86.703125 21.597656 87.195312 22.234375 87.660156 C 22.328125 87.734375 22.425781 87.804688 22.527344 87.878906 C 25.511719 90.300781 25.511719 90.300781 28.914062 91.617188 C 29.886719 88.9375 30.507812 86.164062 30.929688 83.347656 C 30.957031 83.179688 30.980469 83.015625 31.007812 82.847656 C 31.167969 81.699219 31.203125 80.578125 31.175781 79.421875 C 31.125 79.421875 31.074219 79.421875 31.023438 79.421875 Z M 71.085938 80.640625 C 71.035156 80.769531 70.984375 80.902344 70.933594 81.039062 C 70.089844 83.164062 68.878906 85.097656 67.066406 86.507812 C 66.972656 86.582031 66.882812 86.652344 66.785156 86.726562 C 66.046875 87.304688 65.277344 87.808594 64.457031 88.261719 C 64.945312 88.667969 65.441406 89.035156 65.976562 89.375 C 66.121094 89.46875 66.261719 89.558594 66.410156 89.65625 C 66.558594 89.75 66.707031 89.84375 66.859375 89.9375 C 67.152344 90.125 67.445312 90.3125 67.738281 90.5 C 67.875 90.589844 68.011719 90.675781 68.15625 90.765625 C 68.457031 90.960938 68.738281 91.167969 69.023438 91.386719 C 69.414062 91.652344 69.414062 91.652344 69.863281 91.613281 C 70.4375 91.429688 70.953125 91.179688 71.480469 90.890625 C 71.589844 90.832031 71.695312 90.773438 71.808594 90.714844 C 73.222656 89.929688 74.5625 89.019531 75.902344 88.109375 C 75.707031 87.578125 75.480469 87.117188 75.175781 86.640625 C 75.089844 86.507812 75.003906 86.371094 74.917969 86.234375 C 74.78125 86.023438 74.78125 86.023438 74.640625 85.804688 C 74.453125 85.503906 74.261719 85.203125 74.070312 84.90625 C 73.976562 84.753906 73.878906 84.601562 73.78125 84.445312 C 73.34375 83.753906 72.910156 83.058594 72.476562 82.363281 C 72.332031 82.128906 72.183594 81.894531 72.039062 81.65625 C 71.976562 81.558594 71.914062 81.460938 71.851562 81.363281 C 71.699219 81.121094 71.542969 80.878906 71.386719 80.640625 C 71.285156 80.640625 71.1875 80.640625 71.085938 80.640625 Z M 33.585938 84.144531 C 33.5625 84.246094 33.539062 84.34375 33.515625 84.445312 C 33.417969 84.886719 33.316406 85.324219 33.214844 85.765625 C 33.15625 86.027344 33.09375 86.292969 33.035156 86.554688 C 32.621094 88.367188 32.195312 90.15625 31.609375 91.917969 C 31.449219 92.394531 31.449219 92.394531 31.476562 92.988281 C 35.441406 94.578125 39.441406 95.734375 43.675781 96.292969 C 43.808594 96.3125 43.945312 96.332031 44.085938 96.347656 C 45.558594 96.53125 47 96.570312 48.492188 96.644531 C 48.492188 93.375 48.492188 90.105469 48.492188 86.738281 C 47.675781 86.675781 46.859375 86.613281 46.019531 86.546875 C 41.753906 86.195312 37.6875 85.390625 33.585938 84.144531 Z M 51.203125 86.890625 C 51.203125 90.058594 51.203125 93.230469 51.203125 96.492188 C 51.851562 96.492188 52.496094 96.492188 53.164062 96.492188 C 53.355469 96.503906 53.546875 96.511719 53.746094 96.523438 C 54.429688 96.507812 54.996094 96.449219 55.515625 95.957031 C 56.0625 95.300781 56.503906 94.578125 56.957031 93.859375 C 57.445312 93.117188 57.988281 92.421875 58.527344 91.71875 C 58.730469 91.453125 58.933594 91.1875 59.136719 90.921875 C 59.222656 90.808594 59.308594 90.695312 59.398438 90.582031 C 59.652344 90.226562 59.871094 89.859375 60.089844 89.480469 C 59.851562 89.472656 59.851562 89.472656 59.609375 89.464844 C 56.390625 89.328125 53.996094 88.539062 51.203125 86.890625 Z M 62.425781 90.925781 C 62.351562 91.027344 62.273438 91.128906 62.191406 91.238281 C 62.105469 91.351562 62.019531 91.464844 61.929688 91.585938 C 61.839844 91.707031 61.746094 91.832031 61.652344 91.957031 C 61.511719 92.144531 61.511719 92.144531 61.371094 92.335938 C 61.09375 92.703125 60.816406 93.074219 60.542969 93.445312 C 60.394531 93.640625 60.25 93.839844 60.101562 94.035156 C 59.796875 94.445312 59.492188 94.859375 59.1875 95.273438 C 59.710938 95.457031 60.042969 95.394531 60.570312 95.246094 C 60.722656 95.203125 60.878906 95.160156 61.035156 95.113281 C 61.199219 95.066406 61.363281 95.019531 61.53125 94.96875 C 61.695312 94.921875 61.863281 94.875 62.035156 94.824219 C 63.523438 94.386719 64.972656 93.863281 66.414062 93.292969 C 66.414062 93.140625 66.414062 92.992188 66.414062 92.835938 C 66.109375 92.570312 66.109375 92.570312 65.707031 92.324219 C 65.558594 92.230469 65.410156 92.132812 65.261719 92.035156 C 65.105469 91.9375 64.949219 91.839844 64.789062 91.738281 C 64.632812 91.640625 64.480469 91.539062 64.320312 91.4375 C 63.394531 90.707031 63.394531 90.707031 62.425781 90.925781 Z M 62.425781 90.925781 "/>
<path style=" stroke:none;fill-rule:nonzero;fill:rgb(6.666667%,33.725491%,39.607844%);fill-opacity:1;" d="M 63.695312 71.769531 C 65.050781 73.234375 65.597656 74.972656 65.558594 76.953125 C 65.371094 78.886719 64.496094 80.414062 63.132812 81.738281 C 61.558594 83.03125 59.636719 83.265625 57.679688 83.078125 C 56.492188 82.84375 55.566406 82.367188 54.667969 81.554688 C 54.578125 81.476562 54.488281 81.402344 54.394531 81.324219 C 53.195312 80.238281 52.5 78.625 52.378906 77.015625 C 52.316406 75.035156 52.917969 73.230469 54.238281 71.753906 C 56.960938 69.234375 60.988281 69.207031 63.695312 71.769531 Z M 55.9375 74.109375 C 55.328125 74.90625 55.097656 75.832031 55.121094 76.828125 C 55.28125 78.050781 55.847656 78.941406 56.777344 79.726562 C 57.816406 80.351562 58.84375 80.523438 60.015625 80.246094 C 61.066406 79.894531 61.746094 79.285156 62.347656 78.355469 C 62.859375 77.273438 62.90625 76.277344 62.550781 75.144531 C 62.113281 74.089844 61.25 73.3125 60.261719 72.789062 C 58.519531 72.507812 57.160156 72.761719 55.9375 74.109375 Z M 55.9375 74.109375 "/>
<path style=" stroke:none;fill-rule:nonzero;fill:rgb(6.666667%,33.725491%,39.607844%);fill-opacity:1;" d="M 24.585938 71.089844 C 25.828125 71.976562 26.6875 73.101562 27.046875 74.609375 C 27.316406 76.320312 27.011719 77.84375 26.011719 79.253906 C 25.113281 80.363281 23.996094 81.125 22.589844 81.402344 C 20.71875 81.535156 19.351562 81.253906 17.855469 80.089844 C 16.804688 79.097656 16.199219 77.882812 16.0625 76.4375 C 16.046875 74.667969 16.332031 73.324219 17.472656 71.953125 C 19.378906 69.996094 22.269531 69.679688 24.585938 71.089844 Z M 19.648438 73.847656 C 19.109375 74.460938 18.859375 75 18.769531 75.808594 C 18.859375 76.714844 19.191406 77.425781 19.871094 78.03125 C 20.683594 78.601562 21.222656 78.734375 22.203125 78.609375 C 23.046875 78.386719 23.613281 77.867188 24.085938 77.144531 C 24.402344 76.21875 24.46875 75.570312 24.089844 74.671875 C 23.734375 73.972656 23.304688 73.484375 22.589844 73.171875 C 21.429688 72.886719 20.539062 73.007812 19.648438 73.847656 Z M 19.648438 73.847656 "/>
<path style=" stroke:none;fill-rule:nonzero;fill:rgb(6.666667%,33.725491%,39.607844%);fill-opacity:1;" d="M 49.109375 18.851562 C 50.269531 19.667969 51.359375 20.644531 51.65625 22.105469 C 51.808594 23.847656 51.6875 25.3125 50.574219 26.722656 C 49.566406 27.808594 48.257812 28.347656 46.800781 28.410156 C 45.40625 28.378906 44.050781 27.847656 43.074219 26.828125 C 42.058594 25.425781 41.714844 24.140625 41.867188 22.410156 C 42.15625 20.925781 42.984375 19.816406 44.191406 18.941406 C 45.589844 18.175781 47.695312 18.070312 49.109375 18.851562 Z M 44.988281 22.066406 C 44.628906 22.691406 44.480469 23.222656 44.617188 23.941406 C 44.894531 24.683594 45.386719 25.175781 46.074219 25.535156 C 46.78125 25.648438 47.335938 25.566406 47.996094 25.285156 C 48.542969 24.835938 48.871094 24.324219 49.003906 23.625 C 49.046875 22.839844 48.84375 22.382812 48.34375 21.796875 C 47.71875 21.238281 47.226562 21.085938 46.410156 21.132812 C 45.765625 21.246094 45.371094 21.535156 44.988281 22.066406 Z M 44.988281 22.066406 "/>
</g>
</svg>
